<svg
  class="fill-current"
  style="color: #B91C1C"
  height="40"
  viewBox="0 -15 1050 260"
>
  <path
    d="M356 6C356 6 356 113 356 113 356 113 391 113 391 113 398.4 113 404.6 112.3 411 108.2 423.8 100.1 428.4 85.3 424.5 71 422.9 65 419.8 58.9 414 56 425 39.8 417.9 16.1 400 8.3 393.1 5.4 390.7 6.4 384 6 372.5 5.1 367.8 4.4 356 6ZM434 6C434 6 434 113 434 113 434 113 499 113 499 113 499 113 499 90 499 90 499 90 456 90 456 90 457.1 81.3 457.6 79.8 456 71 456 71 499 71 499 71 499 71 499 48 499 48 499 48 456 48 456 48 457.3 37.9 457.3 39.1 456 29 456 29 499 29 499 29 499 29 499 13 499 13 499 5 497.8 5 489 5 476.2 5 444.7 4.1 434 6ZM507 5C507 5 507 113 507 113 507 113 573 113 573 113 573 113 573 90 573 90 573 90 530 90 530 90 530 90 530 71 530 71 530 71 573 71 573 71 573 71 573 48 573 48 573 48 530 48 530 48 530 48 530 29 530 29 530 29 573 29 573 29 573 29 573 5 573 5 573 5 507 5 507 5ZM254 6C254 6 196 24.7 196 24.7 190.9 26.4 175.4 32.3 171 31.9 171 31.9 150 25.7 150 25.7 150 25.7 107 12.6 107 12.6 103.1 11.4 88 6 85.1 6.8 81.6 7.7 76.2 16.9 74 20 74 20 48.6 56 48.6 56 48.6 56 13.3 106 13.3 106 10.7 109.9 0.9 122.2 0.6 126 0.4 129.2 3.3 132.5 5.1 135 5.1 135 20.1 155 20.1 155 20.1 155 65.1 215 65.1 215 65.1 215 78.6 233 78.6 233 80.3 235.3 84.1 241 86.2 242.4 90.8 245.7 102.8 240.1 108 238.3 108 238.3 148 224.7 148 224.7 148 224.7 167 218.7 167 218.7 170.3 218.4 184 223.1 188 224.3 188 224.3 231 238 231 238 234.6 239.2 249.4 244.5 252 244.5 255.8 244.4 257.8 240.8 259.9 238 259.9 238 273.6 219 273.6 219 273.6 219 321.2 153 321.2 153 321.2 153 334.2 135 334.2 135 335.9 132.6 338.9 129.1 339 126 339.2 122.4 335.4 117.8 333.4 115 333.4 115 318 94 318 94 318 94 270.6 29 270.6 29 270.6 29 254 6 254 6ZM581 6C581 6 581 113 581 113 581 113 603 113 603 113 603 113 603 65 603 65 603 65 616.2 97 616.2 97 616.2 97 622.7 111.4 622.7 111.4 622.7 111.4 631 113 631 113 631 113 646.6 112 646.6 112 646.6 112 653 99 653 99 653 99 666 66 666 66 666 66 667 84 667 84 667 84 667 113 667 113 667 113 689 113 689 113 689 113 689 6 689 6 689 6 673 6 673 6 673 6 665.4 7 665.4 7 665.4 7 657.4 24 657.4 24 657.4 24 635 80 635 80 635 80 626.6 59 626.6 59 626.6 59 612.4 24 612.4 24 612.4 24 604.4 7 604.4 7 604.4 7 597 6 597 6 597 6 581 6 581 6ZM379 48C379 48 379 29 379 29 382.4 29 388 28.6 391 30.2 397 33.4 397.7 42.3 391.9 46.2 388.5 48.5 383 48 379 48ZM166 64C166 64 204 86 204 86 219 94.6 219 93.6 219 103 219 103 219 115 219 115 218.8 123.9 214 124.6 207 128.8 207 128.8 165 152 165 152 165 147.2 164.2 130.5 166.2 127.2 167.8 124.5 172.3 122.3 175 120.7 181.8 116.9 191.2 113 196 107 196 107 176 96.3 176 96.3 176 96.3 166.6 89.8 166.6 89.8 166.6 89.8 165 83 165 83 165 83 166 64 166 64ZM379 90C379 90 379 71 379 71 383 71 393.8 70.5 397 71.9 404 74.9 404.7 85 397.9 88.7 394.3 90.6 383.5 90 379 90ZM165 93C165 93 164.4 116.8 164.4 116.8 164.4 116.8 156 123.6 156 123.6 156 123.6 134 136 134 136 134 136 134 138 134 138 134 138 154 148.6 154 148.6 154 148.6 163.4 154.5 163.4 154.5 163.4 154.5 165 161 165 161 165 161 165 181 165 181 165 181 126 158.9 126 158.9 111.5 150.6 110 151.2 110 140 110 136.3 109.4 127.2 111.2 124.2 113 121.2 121.7 116.9 125 115 132.8 110.5 158.5 94.9 165 93ZM595 138C595 138 595 246 595 246 595 246 660 246 660 246 660 246 660 223 660 223 660 223 617 223 617 223 617 223 617 204 617 204 617 204 660 204 660 204 660 204 660 190 660 190 660 190 659 182.6 659 182.6 659 182.6 651 181 651 181 651 181 617 181 617 181 617 181 617 161 617 161 617 161 660 161 660 161 660 161 660 138 660 138 660 138 595 138 595 138ZM421 149C407.8 141.9 403.7 138.9 388 139 370.7 139.1 356.2 151.2 356 169 355.9 177.1 356.1 181.8 360.5 189 364.8 196 371.8 201.4 380 202.8 386.6 203.9 399.8 203.8 401.5 212 402.8 218 396.6 223.4 390 222.7 386.5 222.3 382.1 220.8 379 219.1 376.7 217.9 373.7 215.4 371 215.9 368.2 216.4 364 220.9 362 223 360.6 224.5 357.8 227.1 357.2 229 356 232.2 358.8 234.1 361 235.8 366.2 239.8 371.8 242.2 378 244 399 250 424.7 241.2 424.8 216 424.8 216 424.8 205 424.8 205 423 195.5 414.9 187.4 406 184.4 396 180.9 381.5 182.6 379.5 173 378.2 167 384.4 162.1 390 162.1 396.6 162.2 401.9 166.4 405 166.3 408.9 166.2 417.2 157.3 419.3 154 420.5 152.1 420.6 151.1 421 149ZM429 139C429 139 429 153 429 153 429 153 430 160.4 430 160.4 430 160.4 436 162 436 162 436 162 458 162 458 162 458 162 458 246 458 246 458 246 482 246 482 246 482 246 482 162 482 162 482 162 511 162 511 162 511 162 511 139 511 139 511 139 429 139 429 139ZM519 139C519 139 519 246 519 246 519 246 542 246 542 246 542 246 542 204 542 204 542 204 556.2 235 556.2 235 559.6 241.9 559.6 245.8 568 246 568 246 586 246 586 246 584.9 238.8 577.2 223.1 573.8 216 572.6 213.7 568 204 568 202 567.8 198.3 572.2 195.7 574.5 192.9 578.4 188.3 580.8 183 581.6 177 582.2 173.7 582.2 167.2 581.6 164 580.9 161.2 579.5 157.5 578.1 155 569.2 138.8 555.9 139 540 139 540 139 519 139 519 139ZM664 245C669.5 246.6 675.4 246 681 246 684 246 687 246.3 689.2 243.7 690.8 241.7 695.3 228.4 696.6 225 697.6 222.2 698.5 218.8 701.2 217.2 703.2 216 705.8 216 708 216 712.9 215.9 727.2 214.7 730.2 218.3 732.1 220.6 736.4 234.2 737.8 238 738.6 240 739.7 243.7 741.5 245 743.2 246.1 746 246 748 246 748 246 765 246 765 246 765 246 755.1 216 755.1 216 755.1 216 735.8 163 735.8 163 735.8 163 730 147 730 147 730 147 726.5 140 726.5 140 726.5 140 721 139 721 139 721 139 711 139 711 139 711 139 703.4 140 703.4 140 703.4 140 699.3 148 699.3 148 699.3 148 693.5 164 693.5 164 693.5 164 680.7 199 680.7 199 680.7 199 664 245 664 245ZM770 139C770 139 770 246 770 246 770 246 793 246 793 246 793 246 793 199 793 199 793 199 806.7 232 806.7 232 812.3 245 810.7 246 821 246 824.3 246 833.3 246.5 835.7 245 838.5 243.2 840.9 236.1 842.2 233 845.2 225.4 853.8 205.7 855 199 856.9 205.8 856 228.5 856 237 856 244.7 855.9 245.9 864 246 864 246 879 246 879 246 879 246 879 139 879 139 879 139 862 139 862 139 862 139 854.7 140 854.7 140 854.7 140 847.9 155 847.9 155 847.9 155 834 190 834 190 834 190 826 212 826 212 821.6 207.6 819.5 199.8 817.2 194 817.2 194 802.6 158 802.6 158 801.2 154.3 797.2 141.9 794.5 140 792.7 138.8 789.2 139 787 139 787 139 770 139 770 139ZM542 181C542 181 542 162 542 162 545.6 162 550.8 161.7 554 163.3 560.2 166.6 560.5 175.1 554.8 179 551.2 181.5 546.2 181 542 181ZM716 175C716 175 722 193 722 193 722 193 708 193 708 193 708 193 714 175 714 175 714 175 716 175 716 175Z"
  />
</svg>

