<svg
  class="fill-current"
  width="15"
  height="20"
  viewBox="0 0 135.46667 135.46667"
  xmlns="http://www.w3.org/2000/svg"
  xmlns:svg="http://www.w3.org/2000/svg"
>
  <path
    d="m 103.61834,126.85905 c -3.36584,-1.06077 -11.252031,1.49953 -12.088805,-2.53812 -1.311939,-4.64957 5.028345,-2.90323 7.802554,-3.6028 9.482881,-0.28493 19.073651,-0.70493 28.488841,0.68138 4.24774,4.85488 -3.11258,5.68899 -6.82602,5.27435 -5.78834,0.23154 -11.58485,0.40486 -17.37657,0.18519 z m -43.059174,0.003 c -3.613079,-0.97353 -10.958682,1.21637 -12.664464,-2.29468 -1.356964,-4.42247 4.149158,-3.45572 7.035495,-3.83598 10.190171,-0.0775 20.514589,-0.81409 30.613256,0.7635 1.292709,0.24271 1.597393,4.54073 -0.164851,4.43341 -8.182814,1.21477 -16.561917,1.05245 -24.819436,0.93375 z m -42.713785,-0.002 c -3.396264,-1.08247 -11.341515,1.51818 -12.2039379,-2.53901 -0.081662,-5.69554 8.5739609,-2.80168 12.4615279,-3.79947 8.274984,0.0639 16.669074,-0.44675 24.841075,1.09004 0.701743,3.42181 -0.582832,5.57729 -4.613387,4.86631 -6.818635,0.38905 -13.656405,0.62517 -20.485278,0.38213 z m -2.648024,-17.73133 c -3.938279,-0.52177 -11.3962736,0.99962 -9.5559139,-5.26132 0.9863423,-3.904148 8.9343979,-1.28455 12.2857459,-2.41696 32.624816,-0.51074 65.264227,-0.51311 97.889061,-0.004 3.32257,1.16943 11.40738,-1.53617 12.3251,2.4382 -0.38828,1.62845 1.14378,4.88496 -1.55427,4.55522 -13.22382,1.29306 -26.56555,0.5593 -39.839902,0.80603 -23.849611,10e-4 -47.701334,0.12346 -71.549821,-0.11722 z M 17.845381,90.249555 C 14.354554,89.273567 7.2531512,91.365295 5.6414431,88.055479 5.7114317,61.54141 5.4684606,35.023066 5.8203739,8.5123647 9.7503422,5.1824092 17.702822,7.1800492 23.095622,6.4586833 54.928618,6.3356619 86.772562,5.9272706 118.59998,6.5726978 c 2.87236,1.1412459 10.84328,-1.6625885 10.23216,3.1212209 0,26.4667443 0,52.9334923 0,79.4002373 -11.9746,1.999345 -24.22896,1.013992 -36.327206,1.327068 -24.886185,0.01301 -49.774815,0.117213 -74.659553,-0.171669 z m 6.483407,30.017145 c 6.235996,0.2844 12.850651,-0.37221 18.802477,1.51946 1.515081,5.01322 -3.754096,5.03921 -7.5388,5.01791 -9.879149,0.34304 -19.917086,0.79789 -29.6854768,-0.91139 -2.3319929,-4.30327 2.5876809,-5.8468 6.4482858,-5.27985 3.985318,-0.259 7.980464,-0.34192 11.973514,-0.34613 z m 85.816002,0 c 6.236,0.2844 12.85065,-0.37221 18.80248,1.51946 1.51508,5.01323 -3.7541,5.03921 -7.5388,5.01791 -9.87915,0.34304 -19.91709,0.79789 -29.685477,-0.91139 -2.331993,-4.30327 2.58768,-5.8468 6.448285,-5.27985 3.985322,-0.259 7.980462,-0.34192 11.973512,-0.34613 z m -43.006865,0 c 6.427615,0.28548 13.225047,-0.37439 19.375639,1.51946 1.547818,5.12784 -3.974352,4.98934 -7.768606,5.01791 -10.181236,0.34271 -20.516721,0.79847 -30.590393,-0.91139 -2.411611,-4.39781 2.781175,-5.82165 6.644852,-5.27985 4.107156,-0.25902 8.223848,-0.34192 12.338508,-0.34613 z M 30.266236,101.08362 c 28.368925,0.089 56.741897,-0.19749 85.107724,0.18286 3.73619,1.11678 11.70751,-1.498106 12.9286,2.7215 1.095,4.05509 -1.66839,5.55451 -5.63569,5.01045 -19.96826,0.97561 -39.972866,0.39201 -59.958925,0.55186 -18.067462,-0.19423 -36.171659,0.54733 -54.2042055,-0.79404 -4.1513004,0.72032 -2.7721984,-3.41572 -2.977428,-5.91881 4.6880275,-2.0607 10.9338715,-1.15058 16.2165115,-1.66191 2.840661,-0.0634 5.68206,-0.0917 8.523413,-0.0919 z M 27.452315,6.1871795 c 29.700716,0.080835 59.405048,-0.1731126 89.103175,0.1493901 3.5941,1.1141687 11.91925,-1.6349771 12.39836,3.1011957 0,26.5236617 0,53.0473237 0,79.5709857 -6.66097,1.833407 -13.88087,1.221796 -20.7853,1.517486 -30.077746,-0.07654 -60.15913,0.174189 -90.234294,-0.14742 -3.594102,-1.114171 -11.919252,1.634977 -12.3983584,-3.101197 0,-26.523663 0,-53.047325 0,-79.570986 C 12.196865,5.8732281 19.416768,6.4848398 26.321192,6.1891494 Z"
  />
</svg>

