<svg
  class="fill-current"
  width="15"
  height="20"
  viewBox="0 0 135.46666 135.46667"
  version="1.1"
  xmlns="http://www.w3.org/2000/svg"
  xmlns:svg="http://www.w3.org/2000/svg"
>
  <path
    d="m 13.269688,115.07304 h 18.104584 c 3.417702,0 6.169138,1.04752 6.169138,2.34869 v 10.75269 c 0,1.30117 -2.751436,2.34869 -6.169138,2.34869 H 13.269688 c -3.4177023,0 -6.1691378,-1.04752 -6.1691378,-2.34869 v -10.75269 c 0,-1.30117 2.7514355,-2.34869 6.1691378,-2.34869 z M 31.848341,8.8258085 h 72.627419 c 13.71028,0 24.74779,1.2718955 24.74779,2.8517825 v 13.055874 c 0,1.579888 -11.03751,2.851783 -24.74779,2.851783 H 31.848341 c -13.710279,0 -24.7477965,-1.271895 -24.7477965,-2.851783 V 11.677591 c 0,-1.579887 11.0375175,-2.8517825 24.7477965,-2.8517825 z m 10e-7,24.6310095 h 72.627418 c 13.71028,0 24.74779,1.271895 24.74779,2.851782 v 13.055875 c 0,1.579887 -11.03751,2.851782 -24.74779,2.851782 H 31.848342 c -13.71028,0 -24.7477971,-1.271895 -24.7477971,-2.851782 V 36.3086 c 0,-1.579887 11.0375171,-2.851782 24.7477971,-2.851782 z m -0.0079,54.291 h 72.604288 c 13.70592,0 24.73992,1.214685 24.73992,2.723508 v 12.468614 c 0,1.50883 -11.034,2.72351 -24.73992,2.72351 H 31.840468 c -13.705915,0 -24.7399178,-1.21468 -24.7399178,-2.72351 V 90.471326 c 0,-1.508823 11.0340028,-2.723508 24.7399178,-2.723508 z m 19.078395,27.146732 h 18.104584 c 3.417702,0 6.169138,1.04752 6.169138,2.34869 v 10.75269 c 0,1.30117 -2.751436,2.34869 -6.169138,2.34869 H 50.918863 c -3.417702,0 -6.169138,-1.04752 -6.169138,-2.34869 v -10.75269 c 0,-1.30117 2.751436,-2.34869 6.169138,-2.34869 z M 31.848347,59.456112 h 72.627413 c 13.71028,0 24.7478,1.271895 24.7478,2.851782 v 13.055875 c 0,1.579887 -11.03752,2.851782 -24.7478,2.851782 H 31.848347 c -13.710279,0 -24.7477968,-1.271895 -24.7477968,-2.851782 V 62.307894 c 0,-1.579887 11.0375178,-2.851782 24.7477968,-2.851782 z"
    id="path572"
  />
  <path
    d="m 31.847656,8.7441406 c -6.857672,0 -13.045537,0.317979 -17.523437,0.8339844 -2.23895,0.2580027 -4.050288,0.564779 -5.3066409,0.908203 -0.6281766,0.171712 -1.1180056,0.351081 -1.4570312,0.542969 -0.1695128,0.09594 -0.3013505,0.196368 -0.3945313,0.302734 -0.093181,0.106366 -0.1484375,0.223052 -0.1484375,0.345703 v 13.056641 c 0,0.122651 0.055257,0.239337 0.1484375,0.345703 0.093181,0.106366 0.2250185,0.204837 0.3945313,0.300781 0.3390256,0.191888 0.8288546,0.371257 1.4570312,0.542969 1.2563529,0.343425 3.0676909,0.652154 5.3066409,0.910156 4.4779,0.516006 10.665765,0.833985 17.523437,0.833985 h 72.628904 c 6.85768,0 13.04554,-0.317979 17.52344,-0.833985 2.23895,-0.258002 4.05029,-0.566731 5.30664,-0.910156 0.62818,-0.171712 1.11801,-0.351081 1.45703,-0.542969 0.16951,-0.09594 0.30135,-0.194415 0.39453,-0.300781 0.0932,-0.106366 0.14844,-0.223052 0.14844,-0.345703 V 11.677734 c 0,-0.122651 -0.0553,-0.239337 -0.14844,-0.345703 -0.0932,-0.106366 -0.22502,-0.20679 -0.39453,-0.302734 -0.33902,-0.191888 -0.82885,-0.371257 -1.45703,-0.542969 C 126.05029,10.142904 124.23895,9.8361277 122,9.578125 117.5221,9.0621196 111.33424,8.7441406 104.47656,8.7441406 Z m 0,0.1640625 h 72.628904 c 6.8526,0 13.03744,0.3171182 17.50586,0.8320313 2.23421,0.2574565 4.03963,0.5648986 5.28125,0.9042966 0.62081,0.1697 1.09983,0.349228 1.41797,0.529297 0.15907,0.09004 0.27832,0.179789 0.35352,0.265625 0.0752,0.08584 0.10546,0.163447 0.10546,0.238281 v 13.056641 c 0,0.07484 -0.0303,0.152445 -0.10546,0.238281 -0.0752,0.08584 -0.19445,0.175591 -0.35352,0.265625 -0.31814,0.180069 -0.79716,0.357645 -1.41797,0.527344 -1.24162,0.339399 -3.04704,0.64684 -5.28125,0.904297 -4.46842,0.514913 -10.65326,0.833984 -17.50586,0.833984 H 31.847656 c -6.852593,0 -13.037439,-0.319071 -17.505859,-0.833984 C 12.107587,26.412465 10.302172,26.105024 9.0605469,25.765625 8.4397343,25.595926 7.9607219,25.41835 7.6425781,25.238281 7.4835062,25.148247 7.3642584,25.058493 7.2890625,24.972656 7.2138666,24.88682 7.1835937,24.80921 7.1835937,24.734375 V 11.677734 c 0,-0.07483 0.030273,-0.152444 0.1054688,-0.238281 0.075196,-0.08584 0.1944437,-0.17559 0.3535156,-0.265625 C 7.9607219,10.993759 8.4397343,10.814231 9.0605469,10.644531 10.302172,10.305133 12.107587,9.9976909 14.341797,9.7402344 18.810217,9.2253213 24.995063,8.9082031 31.847656,8.9082031 Z m 0,24.4667969 c -6.857673,0 -13.045537,0.317979 -17.523437,0.833984 -2.23895,0.258003 -4.050288,0.564779 -5.3066409,0.908203 -0.6281765,0.171713 -1.1180056,0.351081 -1.4570312,0.542969 -0.1695128,0.09594 -0.3013505,0.196368 -0.3945313,0.302735 -0.093181,0.106366 -0.1484375,0.223052 -0.1484375,0.345703 v 13.05664 c 0,0.122651 0.055257,0.239337 0.1484375,0.345703 0.093181,0.106367 0.2250185,0.204838 0.3945313,0.300782 0.3390256,0.191888 0.8288547,0.373209 1.4570312,0.544922 1.2563529,0.343424 3.0676909,0.6502 5.3066409,0.908203 4.4779,0.516005 10.665764,0.833984 17.523437,0.833984 h 72.628904 c 6.85768,0 13.04554,-0.317979 17.52344,-0.833984 2.23895,-0.258003 4.05029,-0.564779 5.30664,-0.908203 0.62818,-0.171713 1.11801,-0.353034 1.45703,-0.544922 0.16951,-0.09594 0.30135,-0.194415 0.39453,-0.300782 0.0932,-0.106366 0.14844,-0.223052 0.14844,-0.345703 v -13.05664 c 0,-0.122651 -0.0553,-0.239337 -0.14844,-0.345703 -0.0932,-0.106367 -0.22502,-0.206791 -0.39453,-0.302735 -0.33902,-0.191888 -0.82885,-0.371256 -1.45703,-0.542969 C 126.05029,34.773763 124.23895,34.466987 122,34.208984 117.5221,33.692979 111.33424,33.375 104.47656,33.375 Z m 0,0.164062 h 72.628904 c 6.8526,0 13.03744,0.317119 17.50586,0.832032 2.23421,0.257456 4.03963,0.564898 5.28125,0.904297 0.62081,0.169699 1.09983,0.349228 1.41797,0.529296 0.15907,0.09004 0.27832,0.179789 0.35352,0.265625 0.0752,0.08584 0.10547,0.163447 0.10546,0.238282 v 13.05664 c 0,0.07484 -0.0303,0.152445 -0.10546,0.238282 -0.0752,0.08584 -0.19445,0.17559 -0.35352,0.265625 -0.31814,0.180068 -0.79716,0.357644 -1.41797,0.527343 -1.24162,0.339399 -3.04704,0.646841 -5.28125,0.904297 -4.46842,0.514913 -10.65326,0.833985 -17.50586,0.833985 H 31.847656 c -6.852593,0 -13.037439,-0.319072 -17.505859,-0.833985 C 12.107587,51.043325 10.302172,50.735883 9.0605469,50.396484 8.4397343,50.226785 7.9607219,50.049209 7.6425781,49.869141 7.4835063,49.779106 7.3642584,49.689352 7.2890625,49.603516 7.2138666,49.517679 7.1835938,49.440069 7.1835937,49.365234 v -13.05664 c 0,-0.07484 0.030273,-0.152445 0.1054688,-0.238282 0.075196,-0.08584 0.1944438,-0.17559 0.3535156,-0.265625 0.3181438,-0.180068 0.7971562,-0.359597 1.4179688,-0.529296 1.2416251,-0.339399 3.0470401,-0.646841 5.2812501,-0.904297 4.46842,-0.514913 10.653266,-0.832031 17.505859,-0.832032 z m 0,25.833985 c -6.857672,0 -13.045537,0.317979 -17.523437,0.833984 -2.23895,0.258003 -4.050288,0.566732 -5.3066409,0.910156 -0.6281766,0.171713 -1.1180056,0.351081 -1.4570312,0.542969 -0.1695128,0.09594 -0.3013505,0.194415 -0.3945313,0.300781 -0.093181,0.106367 -0.1484375,0.225006 -0.1484375,0.347657 v 13.054687 c 0,0.122651 0.055257,0.24129 0.1484375,0.347656 0.093181,0.106367 0.2250185,0.204838 0.3945313,0.300782 0.3390256,0.191888 0.8288546,0.371256 1.4570312,0.542968 1.2563529,0.343425 3.0676909,0.650201 5.3066409,0.908204 4.4779,0.516005 10.665765,0.833984 17.523437,0.833984 h 72.628904 c 6.85768,0 13.04554,-0.317979 17.52344,-0.833984 2.23895,-0.258003 4.05029,-0.564779 5.30664,-0.908204 0.62818,-0.171712 1.11801,-0.35108 1.45703,-0.542968 0.16951,-0.09594 0.30135,-0.194415 0.39453,-0.300782 0.0932,-0.106366 0.14844,-0.225005 0.14844,-0.347656 V 62.308594 c 0,-0.122651 -0.0553,-0.24129 -0.14844,-0.347657 -0.0932,-0.106366 -0.22502,-0.204837 -0.39453,-0.300781 -0.33902,-0.191888 -0.82885,-0.371256 -1.45703,-0.542969 -1.25635,-0.343424 -3.06769,-0.652153 -5.30664,-0.910156 -4.4779,-0.516005 -10.66576,-0.833984 -17.52344,-0.833984 z m 0,0.166015 h 72.628904 c 6.8526,0 13.03744,0.317119 17.50586,0.832032 2.23421,0.257456 4.03963,0.564898 5.28125,0.904297 0.62081,0.169699 1.09983,0.347275 1.41797,0.527343 0.15907,0.09004 0.27832,0.181742 0.35352,0.267578 0.0752,0.08584 0.10546,0.163447 0.10546,0.238282 v 13.054687 c 0,0.07483 -0.0303,0.152445 -0.10546,0.238281 -0.0752,0.08584 -0.19445,0.177544 -0.35352,0.267579 -0.31814,0.180068 -0.79716,0.357644 -1.41797,0.527343 -1.24162,0.339399 -3.04704,0.646841 -5.28125,0.904297 -4.46842,0.514913 -10.65326,0.832032 -17.50586,0.832031 H 31.847656 c -6.852593,0 -13.037439,-0.317118 -17.505859,-0.832031 C 12.107587,77.043325 10.302172,76.735883 9.0605469,76.396484 8.4397343,76.226785 7.9607219,76.049209 7.6425781,75.869141 7.4835062,75.779106 7.3642584,75.687399 7.2890625,75.601562 7.2138666,75.515726 7.1835937,75.438116 7.1835937,75.363281 V 62.308594 c 0,-0.07484 0.030273,-0.152445 0.1054688,-0.238282 0.075196,-0.08584 0.1944437,-0.177543 0.3535156,-0.267578 0.3181438,-0.180068 0.7971562,-0.357644 1.4179688,-0.527343 1.2416251,-0.339399 3.0470401,-0.646841 5.2812501,-0.904297 4.46842,-0.514913 10.653266,-0.832032 17.505859,-0.832032 z m -0.0078,28.126954 c -6.855377,0 -13.041307,0.304102 -17.517578,0.796875 -2.238136,0.246386 -4.048997,0.539279 -5.3046879,0.867187 -0.6278455,0.163954 -1.1162979,0.336349 -1.4550781,0.519531 -0.1693901,0.09159 -0.3011004,0.185223 -0.3945313,0.28711 -0.093431,0.101887 -0.1503906,0.214657 -0.1503906,0.333984 v 12.468747 c 0,0.11933 0.05696,0.23405 0.1503906,0.33594 0.093431,0.10189 0.2251412,0.19552 0.3945313,0.28711 0.3387803,0.18318 0.8272326,0.35558 1.4550781,0.51953 1.2556909,0.32791 3.0665519,0.6208 5.3046879,0.86719 4.476271,0.49277 10.662201,0.79687 17.517578,0.79687 h 72.605466 c 6.85538,0 13.04131,-0.3041 17.51758,-0.79687 2.23814,-0.24639 4.049,-0.53928 5.30469,-0.86719 0.62784,-0.16395 1.1163,-0.33635 1.45508,-0.51953 0.16939,-0.0916 0.3011,-0.18522 0.39453,-0.28711 0.0934,-0.10189 0.15039,-0.21661 0.15039,-0.33594 V 90.470703 c 0,-0.119327 -0.057,-0.232097 -0.15039,-0.333984 -0.0934,-0.101887 -0.22514,-0.195518 -0.39453,-0.28711 -0.33878,-0.183182 -0.82724,-0.355577 -1.45508,-0.519531 -1.25569,-0.327908 -3.06655,-0.620801 -5.30469,-0.867187 -4.47627,-0.492773 -10.6622,-0.796875 -17.51758,-0.796875 z m 0,0.164062 h 72.605466 c 6.85053,0 13.0328,0.303148 17.5,0.794922 2.2336,0.245887 4.03976,0.539081 5.28125,0.863281 0.62075,0.162101 1.09979,0.333816 1.41797,0.50586 0.15909,0.08602 0.27667,0.172235 0.35156,0.253906 0.0749,0.08167 0.10547,0.153381 0.10547,0.222656 v 12.468747 c 0,0.0693 -0.0306,0.14294 -0.10547,0.22461 -0.0749,0.0817 -0.19247,0.16789 -0.35156,0.25391 -0.31818,0.17204 -0.79722,0.3418 -1.41797,0.50391 -1.24149,0.3242 -3.04765,0.61739 -5.28125,0.86328 -4.4672,0.49177 -10.64947,0.79687 -17.5,0.79687 H 31.839844 c -6.850525,0 -13.032801,-0.3051 -17.5,-0.79687 -2.2336,-0.24589 -4.039758,-0.53908 -5.2812502,-0.86328 -0.620746,-0.16211 -1.099789,-0.33187 -1.4179688,-0.50391 -0.1590899,-0.086 -0.2766703,-0.17224 -0.3515625,-0.25391 -0.074892,-0.0817 -0.1054688,-0.15533 -0.1054688,-0.22461 V 90.470703 c 0,-0.06928 0.030577,-0.140986 0.1054688,-0.222656 0.074892,-0.08167 0.1924726,-0.167885 0.3515625,-0.253906 0.3181799,-0.172044 0.7972228,-0.343759 1.4179688,-0.50586 1.2414922,-0.3242 3.0476502,-0.617394 5.2812502,-0.863281 4.467199,-0.491774 10.649475,-0.794922 17.5,-0.794922 z M 50.917969,114.8125 c -1.717241,0 -3.266423,0.26192 -4.394532,0.69141 -0.564054,0.21474 -1.023274,0.47053 -1.345703,0.76172 -0.322428,0.29118 -0.509765,0.62427 -0.509765,0.97851 v 10.75195 c 0,0.35424 0.187337,0.68538 0.509765,0.97657 0.322429,0.29118 0.781649,0.54697 1.345703,0.76171 1.128109,0.42949 2.677291,0.69141 4.394532,0.69141 h 18.105468 c 1.717241,0 3.266423,-0.26192 4.394532,-0.69141 0.564054,-0.21474 1.023274,-0.47053 1.345703,-0.76171 0.322428,-0.29119 0.511719,-0.62233 0.511719,-0.97657 v -10.75195 c 0,-0.35424 -0.189291,-0.68733 -0.511719,-0.97851 -0.322429,-0.29119 -0.781649,-0.54698 -1.345703,-0.76172 -1.128109,-0.42949 -2.677291,-0.69141 -4.394532,-0.69141 z m 0,0.16406 h 18.105468 c 1.700459,0 3.235859,0.26208 4.337891,0.68164 0.551016,0.20978 0.992701,0.4593 1.292969,0.73047 0.300268,0.27118 0.457031,0.55912 0.457031,0.85547 v 10.75195 c 0,0.29635 -0.156763,0.5843 -0.457031,0.85547 -0.300268,0.27118 -0.741953,0.52069 -1.292969,0.73047 -1.102032,0.41956 -2.637432,0.67969 -4.337891,0.67969 H 50.917969 c -1.700458,0 -3.233905,-0.26013 -4.335938,-0.67969 -0.551016,-0.20978 -0.9927,-0.45929 -1.292969,-0.73047 -0.300268,-0.27117 -0.457031,-0.55912 -0.457031,-0.85547 v -10.75195 c 0,-0.29635 0.156763,-0.58429 0.457031,-0.85547 0.300269,-0.27117 0.741953,-0.52069 1.292969,-0.73047 1.102033,-0.41956 2.63548,-0.68164 4.335938,-0.68164 z m -37.648438,0.0137 c -1.71724,0 -3.266422,0.26387 -4.394531,0.69336 -0.5640543,0.21475 -1.0232746,0.47053 -1.3457031,0.76172 -0.3224285,0.29119 -0.5117188,0.62233 -0.5117188,0.97657 v 10.75195 c 0,0.35424 0.1892903,0.68537 0.5117188,0.97656 0.3224285,0.29119 0.7816488,0.54893 1.3457031,0.76367 1.128109,0.42949 2.677291,0.69141 4.394531,0.69141 H 31.375 c 1.71724,0 3.266422,-0.26192 4.394531,-0.69141 0.564055,-0.21474 1.023275,-0.47248 1.345703,-0.76367 0.322429,-0.29119 0.509766,-0.62232 0.509766,-0.97656 v -10.75195 c 0,-0.35424 -0.187337,-0.68538 -0.509766,-0.97657 -0.322428,-0.29119 -0.781648,-0.54697 -1.345703,-0.76172 -1.128109,-0.42949 -2.677291,-0.69336 -4.394531,-0.69336 z m 0,0.16407 H 31.375 c 1.700458,0 3.233905,0.26208 4.335937,0.68164 0.551017,0.20978 0.994654,0.45929 1.294922,0.73047 0.300269,0.27117 0.455078,0.55912 0.455078,0.85547 v 10.75195 c 0,0.29634 -0.154809,0.58429 -0.455078,0.85547 -0.300268,0.27117 -0.743905,0.52068 -1.294922,0.73047 -1.102032,0.41956 -2.635479,0.68164 -4.335937,0.68164 H 13.269531 c -1.700458,0 -3.233905,-0.26208 -4.3359372,-0.68164 -0.5510162,-0.20979 -0.9946537,-0.4593 -1.2949219,-0.73047 -0.3002682,-0.27118 -0.4550782,-0.55913 -0.4550782,-0.85547 v -10.75195 c 0,-0.29635 0.15481,-0.5843 0.4550782,-0.85547 0.3002682,-0.27118 0.7439057,-0.52069 1.2949219,-0.73047 1.1020322,-0.41956 2.6354792,-0.68164 4.3359372,-0.68164 z"
    id="path574"
  />
</svg>

